<?xml version="1.0" encoding="UTF-8" standalone="no"?>
<!-- Generator: Adobe Illustrator 15.1.0, SVG Export Plug-In . SVG Version: 6.00 Build 0)  -->

<svg
   xmlns:dc="http://purl.org/dc/elements/1.1/"
   xmlns:cc="http://creativecommons.org/ns#"
   xmlns:rdf="http://www.w3.org/1999/02/22-rdf-syntax-ns#"
   xmlns:svg="http://www.w3.org/2000/svg"
   xmlns="http://www.w3.org/2000/svg"
   xmlns:sodipodi="http://sodipodi.sourceforge.net/DTD/sodipodi-0.dtd"
   xmlns:inkscape="http://www.inkscape.org/namespaces/inkscape"
   version="1.1"
   id="Layer_1"
   x="0px"
   y="0px"
   width="250"
   height="250"
   viewBox="0 0 250 250"
   enable-background="new 0 0 33.334 100"
   xml:space="preserve"
   inkscape:version="0.48.2 r9819"
   sodipodi:docname="icon_grains.svg"
   inkscape:export-filename="/Users/tom/Documents/Programming/C#/BrewingApp/BrewingApp/Images/icon_grains_small.png"
   inkscape:export-xdpi="90"
   inkscape:export-ydpi="90"><metadata
   id="metadata3553"><rdf:RDF><cc:Work
       rdf:about=""><dc:format>image/svg+xml</dc:format><dc:type
         rdf:resource="http://purl.org/dc/dcmitype/StillImage" /><dc:title></dc:title></cc:Work></rdf:RDF></metadata><defs
   id="defs3551" /><sodipodi:namedview
   pagecolor="#ffffff"
   bordercolor="#666666"
   borderopacity="1"
   objecttolerance="10"
   gridtolerance="10"
   guidetolerance="10"
   inkscape:pageopacity="0"
   inkscape:pageshadow="2"
   inkscape:window-width="1399"
   inkscape:window-height="804"
   id="namedview3549"
   showgrid="false"
   inkscape:zoom="2.36"
   inkscape:cx="63.128451"
   inkscape:cy="122.20016"
   inkscape:window-x="85"
   inkscape:window-y="0"
   inkscape:window-maximized="0"
   inkscape:current-layer="Layer_1" />








<g
   id="g3589"
   transform="translate(-2.627293,1.4034873)"
   style="fill:#ffffff"><path
     inkscape:connector-curvature="0"
     style="fill:#ffffff"
     id="path3531"
     d="m 134.21745,103.82842 26.35588,-26.358257 c 6.59016,-6.590157 6.59016,-6.590157 6.59016,-32.94841 l -26.35826,26.355881 c -6.58778,6.592529 -6.58778,6.592529 -6.58778,32.950786 z" /><path
     inkscape:connector-curvature="0"
     style="fill:#ffffff"
     id="path3533"
     d="M 167.16586,4.9831855 140.80761,31.34144 c -6.58779,6.587784 -6.58779,6.587784 -6.58779,32.94841 L 160.5757,37.931596 c 6.59016,-6.590156 6.59016,-6.590156 6.59016,-32.9484105 z" /><path
     inkscape:connector-curvature="0"
     style="fill:#ffffff"
     id="path3535"
     d="m 121.03951,103.82842 c 0,-26.358257 0,-26.358257 -6.59016,-32.950786 L 88.088726,44.521753 c 0,26.355881 0,26.355881 6.590157,32.94841 l 26.360627,26.358257 z" /><path
     inkscape:connector-curvature="0"
     style="fill:#ffffff"
     id="path3537"
     d="m 134.21745,143.36461 26.35588,-26.35588 c 6.59016,-6.59016 6.59016,-6.59016 6.59016,-32.950783 L 140.80761,110.4162 c -6.59016,6.59253 -6.59016,6.59253 -6.59016,32.94841 z" /><path
     inkscape:connector-curvature="0"
     style="fill:#ffffff"
     id="path3539"
     d="m 121.03951,143.36461 c 0,-26.35588 0,-26.35588 -6.59016,-32.94841 L 88.088726,84.057947 c 0,26.358253 0,26.358253 6.590157,32.950783 l 26.360627,26.35588 z" /><path
     inkscape:connector-curvature="0"
     style="fill:#ffffff"
     id="path3541"
     d="m 134.21745,182.90318 26.35588,-26.35826 c 6.59016,-6.58778 6.59016,-6.58778 6.59016,-32.94841 l -26.35588,26.35826 c -6.59016,6.59015 -6.59016,6.59015 -6.59016,32.94841 z" /><path
     inkscape:connector-curvature="0"
     style="fill:#ffffff"
     id="path3543"
     d="m 121.03951,182.90318 c 0,-26.35826 0,-26.35826 -6.59016,-32.94841 L 88.088726,123.59651 c 0,26.35826 0,26.35826 6.590157,32.94841 l 26.360627,26.35826 z" /><path
     inkscape:connector-curvature="0"
     style="fill:#ffffff"
     id="path3545"
     d="m 121.03951,64.28985 c 0,-26.358254 0,-26.358254 -6.59016,-32.94841 L 88.088726,4.9831855 c 0,26.3582545 0,26.3582545 6.590157,32.9484105 L 121.03951,64.28985 z" /><path
     inkscape:connector-curvature="0"
     style="fill:#ffffff"
     id="path3547"
     d="M 127.62729,202.67127 88.088726,163.13508 c 0,26.35588 0,26.35588 6.590157,32.94841 l 26.360627,26.35825 v 19.7681 h 13.18031 v -19.7681 l 26.35588,-26.35825 c 6.59016,-6.59016 6.59016,-6.59016 6.59016,-32.94841 l -39.53857,39.53619 z" /></g>
</svg>